# xmcd
#
# Track frame offsets:
#	150
#	5745
#	14625
#	23807
#	32585
#	38860
#	50462
#	57630
#	64822
#	73507
#	83272
#	93262
#	104602
#	110415
#
# Disc length: 1632 seconds
#
# Revision: 0
# Processed by: cddbd v1.5.1PL0 Copyright (c) Steve Scherf et al.
# Submitted via: dBpowerAMP V4.0
#
DISCID=b5065e0e
DTITLE=The Stanley Brothers And The Clinch Mountain Boys - I'm A Man Of Constant Sorrow
DYEAR=1900
DGENRE=Bluegrass
TTITLE0=Cotton Eye Joe
TTITLE1=Blue Moon Of Kentucky
TTITLE2=Lonely Tombs
TTITLE3=Orange Blossom Special
TTITLE4=Old Joe Clark
TTITLE5=They're At Rest Together
TTITLE6=White House Blues
TTITLE7=Standing In The Need Of Prayer
TTITLE8=Riding The Humpbacked Mule
TTITLE9=Goodbye Old Pal
TTITLE10=Just One Way To The Pearly Gate
TTITLE11=Short Life Of Trouble
TTITLE12=Blackberry Blossom
TTITLE13=Rose Of Old Kentucky
EXTD=
EXTT0=
EXTT1=
EXTT2=
EXTT3=
EXTT4=
EXTT5=
EXTT6=
EXTT7=
EXTT8=
EXTT9=
EXTT10=
EXTT11=
EXTT12=
EXTT13=
PLAYORDER=
